<svg width="1427" height="646" xmlns="http://www.w3.org/2000/svg" xmlns:xlink="http://www.w3.org/1999/xlink" overflow="hidden"><defs><clipPath id="clip0"><rect x="653" y="1337" width="1427" height="646"/></clipPath><linearGradient x1="1124.82" y1="2194.78" x2="1608.18" y2="1125.22" gradientUnits="userSpaceOnUse" spreadMethod="reflect" id="fill1"><stop offset="0" stop-color="#B74CFE"/><stop offset="0.29" stop-color="#B74CFE"/><stop offset="0.64" stop-color="#9175FD"/><stop offset="1" stop-color="#7595FC"/></linearGradient><linearGradient x1="1124.82" y1="2194.78" x2="1608.18" y2="1125.22" gradientUnits="userSpaceOnUse" spreadMethod="reflect" id="fill2"><stop offset="0" stop-color="#B74CFE"/><stop offset="0.29" stop-color="#B74CFE"/><stop offset="0.64" stop-color="#9175FD"/><stop offset="1" stop-color="#7595FC"/></linearGradient><linearGradient x1="1124.82" y1="2194.78" x2="1608.18" y2="1125.22" gradientUnits="userSpaceOnUse" spreadMethod="reflect" id="fill3"><stop offset="0" stop-color="#B74CFE"/><stop offset="0.29" stop-color="#B74CFE"/><stop offset="0.64" stop-color="#9175FD"/><stop offset="1" stop-color="#7595FC"/></linearGradient><linearGradient x1="1124.82" y1="2194.78" x2="1608.18" y2="1125.22" gradientUnits="userSpaceOnUse" spreadMethod="reflect" id="fill4"><stop offset="0" stop-color="#B74CFE"/><stop offset="0.29" stop-color="#B74CFE"/><stop offset="0.64" stop-color="#9175FD"/><stop offset="1" stop-color="#7595FC"/></linearGradient><linearGradient x1="1124.82" y1="2194.78" x2="1608.18" y2="1125.22" gradientUnits="userSpaceOnUse" spreadMethod="reflect" id="fill5"><stop offset="0" stop-color="#B74CFE"/><stop offset="0.29" stop-color="#B74CFE"/><stop offset="0.64" stop-color="#9175FD"/><stop offset="1" stop-color="#7595FC"/></linearGradient><linearGradient x1="1124.82" y1="2194.78" x2="1608.18" y2="1125.22" gradientUnits="userSpaceOnUse" spreadMethod="reflect" id="fill6"><stop offset="0" stop-color="#B74CFE"/><stop offset="0.29" stop-color="#B74CFE"/><stop offset="0.64" stop-color="#9175FD"/><stop offset="1" stop-color="#7595FC"/></linearGradient><linearGradient x1="1124.82" y1="2194.78" x2="1608.18" y2="1125.22" gradientUnits="userSpaceOnUse" spreadMethod="reflect" id="fill7"><stop offset="0" stop-color="#B74CFE"/><stop offset="0.29" stop-color="#B74CFE"/><stop offset="0.64" stop-color="#9175FD"/><stop offset="1" stop-color="#7595FC"/></linearGradient><linearGradient x1="1124.82" y1="2194.78" x2="1608.18" y2="1125.22" gradientUnits="userSpaceOnUse" spreadMethod="reflect" id="fill8"><stop offset="0" stop-color="#B74CFE"/><stop offset="0.29" stop-color="#B74CFE"/><stop offset="0.64" stop-color="#9175FD"/><stop offset="1" stop-color="#7595FC"/></linearGradient><linearGradient x1="1124.82" y1="2194.78" x2="1608.18" y2="1125.22" gradientUnits="userSpaceOnUse" spreadMethod="reflect" id="fill9"><stop offset="0" stop-color="#B74CFE"/><stop offset="0.29" stop-color="#B74CFE"/><stop offset="0.64" stop-color="#9175FD"/><stop offset="1" stop-color="#7595FC"/></linearGradient></defs><g clip-path="url(#clip0)" transform="translate(-653 -1337)"><path d="M925.823 1563.46 1018.97 1563.46 1017.65 1568.05C1013.78 1582.9 1011.72 1598.46 1011.72 1614.5 1011.72 1717.15 1096.02 1800.37 1200 1800.37 1303.98 1800.37 1388.28 1717.15 1388.28 1614.5 1388.28 1598.46 1386.22 1582.9 1382.35 1568.05L1381.03 1563.46 1474.18 1563.46 1475.79 1572.39C1477.9 1586.12 1479 1600.18 1479 1614.5 1479 1767.21 1354.09 1891 1200 1891 1045.91 1891 921 1767.21 921 1614.5 921 1600.18 922.098 1586.12 924.215 1572.39ZM1200 1338C1305.94 1338 1398.08 1396.51 1445.33 1482.7L1447.01 1485.96 1335.79 1485.96 1333.13 1483.07C1299.06 1449.44 1251.99 1428.63 1200 1428.63 1148.01 1428.63 1100.94 1449.44 1066.87 1483.07L1064.21 1485.96 952.991 1485.96 954.674 1482.7C1001.92 1396.51 1094.06 1338 1200 1338Z" fill="url(#fill1)" fill-rule="evenodd"/><path d="M1200 1608C1200 1583.7 1219.7 1564 1244 1564L1416 1564C1440.3 1564 1460 1583.7 1460 1608L1460 1608C1460 1632.3 1440.3 1652 1416 1652L1244 1652C1219.7 1652 1200 1632.3 1200 1608Z" fill="url(#fill2)" fill-rule="evenodd"/><path d="M654 1608C654 1583.7 673.7 1564 698 1564L958 1564C982.301 1564 1002 1583.7 1002 1608L1002 1608C1002 1632.3 982.3 1652 958 1652L698 1652C673.7 1652 654 1632.3 654 1608Z" fill="url(#fill3)" fill-rule="evenodd"/><path d="M2048.98 1571.77 2063.15 1606.31 2077.46 1600.45 2078 1614.5C2078 1767.21 1953.09 1891 1799 1891 1789.37 1891 1779.85 1890.52 1770.47 1889.57L1761.24 1888.41 1761.24 1812.43 1788.19 1805.63 1799 1806.17C1906.19 1806.17 1993.08 1720.36 1993.08 1614.5L1992.44 1601.96ZM1799 1338C1883.27 1338 1958.81 1375.02 2009.96 1433.55L2010.5 1434.2 2025.76 1464.2 1955.62 1501.64 1948.76 1492.58C1913.17 1449.98 1859.29 1422.83 1799 1422.83 1691.81 1422.83 1604.92 1508.64 1604.92 1614.5L1605.91 1633.86 1587.09 1633.86 1587.09 1794.06 1583.71 1790.38C1543.91 1742.58 1520 1681.31 1520 1614.5 1520 1461.79 1644.91 1338 1799 1338Z" fill="url(#fill4)" fill-rule="evenodd"/><path d="M1520 1617C1520 1593.25 1539.25 1574 1563 1574L1563 1574C1586.75 1574 1606 1593.25 1606 1617L1606 1939C1606 1962.75 1586.75 1982 1563 1982L1563 1982C1539.25 1982 1520 1962.75 1520 1939Z" fill="url(#fill5)" fill-rule="evenodd"/><path d="M1731 1849.5C1731 1826.58 1749.58 1808 1772.5 1808 1795.42 1808 1814 1826.58 1814 1849.5 1814 1872.42 1795.42 1891 1772.5 1891 1749.58 1891 1731 1872.42 1731 1849.5Z" fill="url(#fill6)" fill-rule="evenodd"/><path d="M1944 1472.5C1944 1449.58 1962.58 1431 1985.5 1431 2008.42 1431 2027 1449.58 2027 1472.5 2027 1495.42 2008.42 1514 1985.5 1514 1962.58 1514 1944 1495.42 1944 1472.5Z" fill="url(#fill7)" fill-rule="evenodd"/><path d="M1992 1609.5C1992 1585.48 2011.48 1566 2035.5 1566 2059.52 1566 2079 1585.48 2079 1609.5 2079 1633.52 2059.52 1653 2035.5 1653 2011.48 1653 1992 1633.52 1992 1609.5Z" fill="url(#fill8)" fill-rule="evenodd"/><path d="M1720 1602C1720 1558.37 1755.15 1523 1798.5 1523 1841.85 1523 1877 1558.37 1877 1602 1877 1645.63 1841.85 1681 1798.5 1681 1755.15 1681 1720 1645.63 1720 1602Z" fill="url(#fill9)" fill-rule="evenodd"/></g></svg>